<?xml version="1.0" encoding="UTF-8"?>
<!DOCTYPE svg PUBLIC "-//W3C//DTD SVG 1.1//EN" "http://www.w3.org/Graphics/SVG/1.1/DTD/svg11.dtd">
<!-- Creator: CorelDRAW X6 -->
<svg xmlns="http://www.w3.org/2000/svg" xml:space="preserve" width="7.4508mm" height="4.9114mm" version="1.1" style="shape-rendering:geometricPrecision; text-rendering:geometricPrecision; image-rendering:optimizeQuality; fill-rule:evenodd; clip-rule:evenodd"
viewBox="0 0 745 491"
 xmlns:xlink="http://www.w3.org/1999/xlink">
 <defs>
  <style type="text/css">
   <![CDATA[
    .fil0 {fill:#FEFEFE;fill-rule:nonzero}
   ]]>
  </style>
 </defs>
 <g id="Layer_x0020_1">
  <metadata id="CorelCorpID_0Corel-Layer"/>
  <path class="fil0" d="M187 169l-120 0 0 116 120 0 0 -47 -62 0 0 -20 88 0 0 52c0,15 -3,25 -8,30 -5,5 -15,8 -28,8l-99 0c-14,0 -24,-3 -29,-8 -5,-5 -7,-15 -7,-30l0 -84c0,-14 2,-24 7,-30 5,-5 14,-8 29,-8l99 0c14,0 23,3 28,8 5,5 8,15 8,28l0 4 -26 5 0 -23zm491 223l-31 0 0 13 28 0c4,0 7,1 8,2 1,2 2,4 2,9l0 5c0,4 -1,7 -2,9 -1,2 -4,2 -8,2l-26 0c-4,0 -7,-1 -8,-2 -1,-2 -2,-4 -2,-9l0 -1 7 -2 0 7 33 0 0 -14 -28 0c-4,0 -7,-1 -8,-2 -1,-2 -2,-4 -2,-9l0 -4c0,-4 1,-7 2,-9 1,-2 4,-2 8,-2l24 0c4,0 7,1 8,2 2,1 2,4 2,8l0 1 -6 2 0 -7zm-99 40l0 -46 43 0 0 6 -35 0 0 13 22 0 0 6 -22 0 0 15 36 0 0 6 -43 0zm-29 -40l-31 0 0 13 28 0c4,0 7,1 8,2 1,2 2,4 2,9l0 5c0,4 -1,7 -2,9 -1,2 -4,2 -8,2l-26 0c-4,0 -7,-1 -8,-2 -1,-2 -2,-4 -2,-9l0 -1 7 -2 0 7 33 0 0 -14 -28 0c-4,0 -7,-1 -8,-2 -1,-2 -2,-4 -2,-9l0 -4c0,-4 1,-7 2,-9 1,-2 4,-2 8,-2l24 0c4,0 7,1 8,2 2,1 2,4 2,8l0 1 -6 2 0 -7zm-68 40l0 -46 7 0 0 46 -7 0zm-33 -40l-26 0 0 16 26 0c2,0 3,0 4,-1 1,-1 1,-2 1,-4l0 -7c0,-2 0,-3 -1,-4 -1,-1 -2,-1 -4,-1zm-33 40l0 -46 36 0c3,0 6,1 7,2 1,1 2,4 2,7l0 10c0,3 -1,5 -2,7 -1,1 -4,2 -7,2l-7 0 20 18 -11 0 -18 -18 -13 0 0 18 -7 0zm-30 -40l-26 0 0 16 26 0c2,0 3,0 4,-1 1,-1 1,-2 1,-4l0 -6c0,-2 0,-3 -1,-4 -1,-1 -2,-1 -4,-1zm-33 40l0 -46 36 0c3,0 6,1 7,2 1,1 2,4 2,7l0 10c0,3 -1,5 -2,7 -1,1 -4,2 -7,2l-28 0 0 18 -7 0zm-33 -40l-26 0 0 16 26 0c2,0 3,0 4,-1 1,-1 1,-2 1,-4l0 -7c0,-2 0,-3 -1,-4 -1,-1 -2,-1 -4,-1zm-33 40l0 -46 36 0c3,0 6,1 7,2 1,1 2,4 2,7l0 10c0,3 -1,5 -2,7 -1,1 -4,2 -7,2l-7 0 20 18 -11 0 -18 -18 -13 0 0 18 -7 0zm-61 0l0 -46 43 0 0 6 -35 0 0 13 22 0 0 6 -22 0 0 15 36 0 0 6 -43 0zm-33 -40l0 40 -7 0 0 -40 -20 0 0 -6 48 0 0 6 -20 0zm-89 40l0 -46 5 0 33 31c1,1 2,2 2,3 1,1 2,2 3,3 0,-1 0,-3 -1,-5 0,-2 0,-4 0,-7l0 -25 7 0 0 46 -4 0 -34 -32c0,0 0,0 -1,-1 -2,-2 -3,-3 -4,-5 0,1 0,3 0,4 0,2 0,3 0,6l0 27 -7 0zm-61 0l0 -46 43 0 0 6 -35 0 0 13 22 0 0 6 -22 0 0 15 36 0 0 6 -43 0zm243 -125l0 -160 148 0 0 21 -122 0 0 44 75 0 0 21 -75 0 0 51 123 0 0 22 -149 0zm230 -131c0,3 1,6 1,10 0,3 0,8 0,14l0 108 -22 0 0 -160 21 0 75 104 70 -104 24 0 0 160 -24 0 0 -108c0,-1 0,-5 0,-11 0,-6 1,-10 1,-13 -2,4 -4,8 -5,10 -1,3 -3,5 -4,7l-59 89 -7 0 -61 -86c0,0 0,0 -1,-1 -4,-6 -8,-13 -10,-19zm-369 -68l199 0c2,-3 5,-6 9,-6 5,0 10,5 10,11 0,6 -4,11 -10,11 -3,0 -7,-2 -8,-5l-199 0 0 -11zm207 -2c4,0 6,3 6,7 0,4 -3,7 -6,7 -4,0 -6,-3 -6,-7 0,-4 3,-7 6,-7zm-62 -39l199 0c2,-3 5,-6 9,-6 5,0 10,5 10,11 0,6 -4,11 -10,11 -3,0 -7,-2 -8,-5l-199 0 0 -11zm207 -2c4,0 6,3 6,7 0,4 -3,7 -6,7 -4,0 -6,-3 -6,-7 0,-4 3,-7 6,-7zm-84 42l199 0c2,-3 5,-6 9,-6 5,0 10,5 10,11 0,6 -4,11 -10,11 -3,0 -7,-2 -8,-5l-199 0 0 -11zm207 -2c4,0 6,3 6,7 0,4 -3,7 -6,7 -4,0 -6,-3 -6,-7 0,-4 3,-7 6,-7zm-160 -69l199 0c2,-3 5,-6 9,-6 5,0 10,5 10,11 0,6 -4,11 -10,11 -3,0 -7,-2 -8,-5l-199 0 0 -11zm207 -2c4,0 6,3 6,7 0,4 -3,7 -6,7 -4,0 -6,-3 -6,-7 0,-4 3,-7 6,-7zm-522 77l8 9 -42 43 -8 -9 42 -43zm145 -43l8 9 -42 43 -8 -9 42 -43zm171 -32l6 7 -32 34 -6 -7 32 -34zm-80 33l37 39 -5 11 -40 -41 8 -9z"/>
 </g>
</svg>
