<?xml version="1.0" encoding="UTF-8"?>
<!DOCTYPE svg PUBLIC "-//W3C//DTD SVG 1.1//EN" "http://www.w3.org/Graphics/SVG/1.1/DTD/svg11.dtd">
<!-- Creator: CorelDRAW X6 -->
<svg xmlns="http://www.w3.org/2000/svg" xml:space="preserve" width="16.9332mm" height="16.9332mm" version="1.1" style="shape-rendering:geometricPrecision; text-rendering:geometricPrecision; image-rendering:optimizeQuality; fill-rule:evenodd; clip-rule:evenodd"
viewBox="0 0 1693 1693"
 xmlns:xlink="http://www.w3.org/1999/xlink">
 <defs>
  <style type="text/css">
   <![CDATA[
    .fil0 {fill:#fff}
    .fil1 {fill:#5B5B5B;fill-rule:nonzero}
   ]]>
  </style>
 </defs>
 <g id="Layer_x0020_1">
  <metadata id="CorelCorpID_0Corel-Layer"/>
  <ellipse class="fil0" cx="858" cy="782" rx="577" ry="588"/>
  <path class="fil1" d="M915 766l187 0 0 15c0,72 -20,128 -61,169 -41,41 -96,62 -166,62 -21,0 -42,-2 -61,-7 -19,-5 -37,-11 -54,-20 -37,-20 -66,-49 -86,-85 -20,-36 -30,-77 -30,-123 0,-38 6,-72 18,-102 12,-30 30,-57 55,-80 20,-19 44,-34 71,-44 27,-10 57,-15 90,-15 44,0 81,8 113,24 32,16 59,40 80,71l-45 36c-16,-28 -37,-48 -61,-62 -24,-14 -53,-21 -85,-21 -53,0 -96,18 -128,53 -33,36 -49,82 -49,140 0,54 17,99 50,133 33,35 76,52 128,52 46,0 83,-14 114,-41 30,-28 47,-64 50,-108l-130 0 0 -48z"/>
 </g>
</svg>
